<?xml version="1.0" standalone="no"?><!DOCTYPE svg PUBLIC "-//W3C//DTD SVG 1.1//EN" "http://www.w3.org/Graphics/SVG/1.1/DTD/svg11.dtd" ><svg xmlns="http://www.w3.org/2000/svg"><metadata></metadata><defs><font id="oppla" horiz-adv-x="1000"><font-face font-family="oppla" font-weight="400" font-stretch="normal" units-per-em="1000" panose-1="2 0 5 3 0 0 0 0 0 0" ascent="850" descent="-150" x-height="0" bbox="-3 -150 1000 853" underline-thickness="0" underline-position="10" unicode-range="U+e800-e81d" /><missing-glyph horiz-adv-x="1000"  /><glyph glyph-name="mail" unicode="&#xe800;" d="M929 11 l0 428 q-18 -20 -39 -37 q-149 -114 -238 -188 q-28 -24 -46 -38 q-18 -14 -48 -27 q-30 -13 -57 -13 l-2 0 q-26 0 -57 13 q-31 13 -48 27 l-46 38 q-88 74 -238 188 q-21 17 -39 37 l0 -428 q0 -8 6 -13 q6 -5 12 -5 l822 0 q7 0 12 5 q5 5 6 13 ZM929 597 l0 14 l-2 14 l-3 5 q-3 5 -5 4 q-2 -1 -8 2 l-822 0 q-7 0 -12 -6 q-5 -6 -6 -12 q0 -94 82 -159 l224 -177 q4 -2 20 -16 q16 -14 25 -21 q9 -7 25 -18 q16 -11 28 -15 q12 -4 24 -5 l2 0 q11 0 24 5 q13 5 28 15 q15 10 25 18 q10 8 25 21 q15 13 20 16 l224 177 q30 24 56 65 q26 41 26 73 ZM1000 618 l0 -607 q0 -37 -26 -63 q-26 -26 -63 -27 l-822 0 q-36 0 -63 27 q-27 27 -26 63 l0 607 q0 37 26 63 q26 26 63 26 l822 0 q37 0 63 -26 q26 -26 26 -63 Z" /><glyph glyph-name="ok" unicode="&#xe801;" d="M932 534 q0 -22 -15 -38 l-480 -480 q-16 -15 -38 -15 q-22 0 -38 15 l-278 278 q-15 16 -15 38 q0 22 15 38 l76 76 q16 16 38 16 q22 0 38 -16 l164 -165 l366 367 q16 16 38 16 q22 0 38 -16 l76 -76 q15 -16 15 -38 Z" /><glyph glyph-name="twitter" unicode="&#xe802;" d="M904 622 q-37 -54 -90 -93 l0 -23 q0 -73 -21 -145 q-21 -72 -64 -139 q-43 -67 -103 -117 q-60 -50 -144 -82 q-84 -32 -181 -30 q-151 0 -276 81 q19 -3 43 -3 q126 0 224 77 q-59 2 -105 36 q-46 34 -64 89 q19 -2 34 -2 q24 0 48 6 q-63 13 -104 62 q-41 49 -41 115 l0 2 q38 -21 82 -23 q-37 25 -59 64 q-22 39 -22 87 q0 48 25 90 q68 -83 164 -133 q96 -50 208 -55 q-5 21 -5 41 q0 75 53 127 q53 52 127 53 q79 0 132 -57 q61 12 114 44 q-20 -64 -79 -100 q52 6 104 28 Z" /><glyph glyph-name="link-ext" unicode="&#xe803;" d="M786 332 l0 -178 q0 -67 -47 -114 q-47 -47 -114 -47 l-464 0 q-67 0 -114 47 q-47 47 -47 114 l0 464 q0 66 47 113 q47 47 114 48 l393 0 q7 0 12 -5 q5 -5 5 -13 l0 -36 q0 -8 -5 -13 q-5 -5 -12 -5 l-393 0 q-37 0 -63 -26 q-26 -26 -27 -63 l0 -464 q0 -37 27 -63 q27 -26 63 -27 l464 0 q37 0 63 27 q26 27 26 63 l0 178 q0 8 5 13 q5 5 13 5 l36 0 q8 0 13 -5 q5 -5 5 -13 ZM1000 814 l0 -285 q0 -15 -11 -26 q-11 -11 -25 -10 q-14 1 -25 10 l-98 99 l-364 -364 q-5 -6 -13 -6 q-8 0 -13 6 l-63 63 q-6 6 -6 13 q0 7 6 13 l364 364 l-99 98 q-10 11 -10 25 q0 14 10 25 q10 11 26 11 l285 0 q15 0 25 -11 q10 -11 11 -25 Z" /><glyph glyph-name="plus" unicode="&#xe804;" d="M786 439 l0 -107 q0 -22 -16 -38 q-16 -16 -38 -15 l-232 0 l0 -233 q0 -22 -16 -37 q-16 -15 -38 -16 l-107 0 q-22 0 -38 16 q-16 16 -15 37 l0 233 l-232 0 q-23 0 -38 15 q-15 15 -16 38 l0 107 q0 23 16 38 q16 15 38 16 l232 0 l0 232 q0 22 15 38 q15 16 38 16 l107 0 q23 0 38 -16 q15 -16 16 -38 l0 -232 l232 0 q22 0 38 -16 q16 -16 16 -38 Z" /><glyph glyph-name="facebook" unicode="&#xe805;" d="M535 843 l0 -147 l-87 0 q-48 0 -65 -20 q-17 -20 -17 -60 l0 -106 l164 0 l-22 -165 l-142 0 l0 -424 l-171 0 l0 424 l-142 0 l0 165 l142 0 l0 122 q0 104 58 161 q58 57 155 57 q82 0 127 -7 Z" /><glyph glyph-name="flickr" unicode="&#xe806;" d="M696 779 q67 0 114 -48 q47 -48 47 -113 l0 -536 q0 -66 -47 -113 q-47 -47 -114 -48 l-535 0 q-67 0 -114 48 q-47 48 -47 113 l0 536 q0 66 47 113 q47 47 114 48 l535 0 ZM390 350 q0 49 -35 84 q-35 35 -84 34 q-49 -1 -83 -34 q-34 -33 -35 -84 q-1 -51 35 -84 q36 -33 83 -34 q47 -1 84 34 q37 35 35 84 ZM704 350 q0 49 -34 84 q-34 35 -84 34 q-50 -1 -84 -34 q-34 -33 -34 -84 q0 -51 34 -84 q34 -33 84 -34 q50 -1 84 34 q34 35 34 84 Z" /><glyph glyph-name="minus" unicode="&#xe807;" d="M786 439 l0 -107 q0 -22 -16 -38 q-16 -16 -38 -15 l-678 0 q-23 0 -38 15 q-15 15 -16 38 l0 107 q0 23 16 38 q16 15 38 16 l678 0 q22 0 38 -16 q16 -16 16 -38 Z" /><glyph glyph-name="linkedin" unicode="&#xe808;" d="M195 501 l0 -553 l-184 0 l0 553 l184 0 ZM207 672 q0 -41 -29 -68 q-29 -27 -75 -27 l-1 0 q-46 0 -74 27 q-28 27 -28 68 q0 41 29 68 q29 27 75 27 q46 0 74 -27 q28 -27 29 -68 ZM857 265 l0 -317 l-183 0 l0 296 q0 59 -23 92 q-23 33 -71 33 q-35 0 -58 -19 q-23 -19 -36 -48 q-6 -17 -6 -45 l0 -309 l-184 0 q1 223 1 361 l0 165 l-1 27 l184 0 l0 -80 l-1 0 q11 18 23 31 q12 13 31 29 q19 16 49 24 q30 8 64 9 q95 0 153 -63 q58 -63 58 -186 Z" /><glyph glyph-name="pinterest" unicode="&#xe809;" d="M0 517 q0 60 21 113 q21 53 58 93 q37 40 85 69 q48 29 103 43 q55 14 112 15 q89 0 165 -37 q76 -37 123 -108 q47 -71 47 -160 q0 -54 -10 -105 q-10 -51 -34 -99 q-24 -48 -56 -83 q-32 -35 -81 -58 q-49 -23 -105 -21 q-38 0 -75 17 q-37 17 -54 50 l-15 -63 q-10 -41 -14 -53 q-4 -12 -11 -40 q-7 -28 -15 -39 q-8 -11 -17 -35 q-9 -24 -26 -44 q-17 -20 -35 -48 l-7 -3 l-6 6 q-8 88 -8 105 q0 51 12 115 q12 64 37 161 l29 113 q-18 36 -18 94 q0 46 29 87 q29 41 74 41 q34 0 53 -23 q19 -23 19 -57 q0 -37 -25 -107 q-25 -70 -24.5 -104.5 q0.5 -34.5 25.5 -57.5 q25 -23 61 -23 q31 0 57 14 q26 14 44 38 q18 24 31 53 q13 29 21 61 q8 32 11 62 q3 30 4 56 q0 96 -61 150 q-61 54 -160 54 q-111 0 -186 -72 q-75 -72 -75 -184 q0 -24 7 -47 q7 -23 15 -36 q8 -13 15 -26 q7 -13 7 -17 q0 -15 -8 -40 q-8 -25 -21 -26 l-9 2 q-29 8 -51 31 q-22 23 -34 53 q-12 30 -18 60 q-6 30 -6 60 Z" /><glyph glyph-name="search" unicode="&#xe80a;" d="M643 386 q0 103 -74 176 q-74 73 -176 74 q-102 1 -177 -74 q-75 -75 -73 -176 q2 -101 73 -177 q71 -76 177 -73 q106 3 176 73 q70 70 74 177 ZM929 -79 q0 -29 -22 -50 q-22 -21 -51 -21 q-29 0 -49 21 l-191 191 q-100 -69 -223 -69 q-80 0 -153 31 q-73 31 -125 84 q-52 53 -84 125 q-32 72 -31 153 q1 81 31 152 q30 71 84 126 q54 55 125 84 q71 29 153 31 q82 2 152 -31 q70 -33 126 -84 q56 -51 84 -126 q28 -75 31 -152 q0 -123 -69 -223 l191 -191 q21 -21 21 -51 Z" /><glyph glyph-name="gplus" unicode="&#xe80b;" d="M410 406 q0 -20 18 -40 q18 -20 43 -37 q25 -17 51 -41 q26 -24 43 -59 q17 -35 18 -79 q0 -50 -27 -96 q-40 -68 -118 -101 q-78 -33 -166 -32 q-74 0 -138 24 q-64 24 -95 76 q-21 34 -21 73 q0 46 25 84 q25 38 66 64 q73 46 225 56 q-18 24 -26 41 q-8 17 -9 41 q0 20 12 48 q-26 -3 -38 -3 q-83 0 -139 54 q-56 54 -57 137 q0 45 20 88 q20 43 55 73 q43 37 102 55 q59 18 122 18 l233 0 l-77 -49 l-73 0 q41 -35 62 -74 q21 -39 21 -90 q0 -40 -13 -72 q-13 -32 -33 -52 q-20 -20 -39 -36 q-19 -16 -33 -34 q-14 -18 -14 -37 ZM329 459 q21 0 43 10 q22 10 37 24 q30 32 30 89 q0 32 -10 69 q-10 37 -27 73 q-17 36 -47 57 q-30 21 -65 23 q-24 0 -46 -11 q-22 -11 -37 -29 q-26 -33 -26 -89 q0 -26 5 -55 q5 -29 18 -57 q13 -28 29 -52 q16 -24 42 -37 q26 -13 54 -15 ZM330 -28 q32 0 62 7 q30 7 55 22 q25 15 41 41 q16 26 15 61 q0 14 -4 27 q-4 13 -8 24 q-4 11 -15 23 q-11 12 -16 19 q-5 7 -22 20 q-17 13 -20 16 q-3 3 -23 16 q-20 13 -21 15 q-8 1 -26 1 q-30 0 -59 -4 q-29 -4 -60 -14 q-31 -10 -54 -25 q-23 -15 -38 -42 q-15 -27 -15 -59 q0 -39 19 -69 q19 -30 51 -46 q32 -16 67 -25 q35 -9 71 -8 ZM782 461 l119 0 l0 -60 l-119 0 l0 -122 l-59 0 l0 122 l-118 0 l0 60 l118 0 l0 121 l59 0 l0 -121 Z" /><glyph glyph-name="key" unicode="&#xe80c;" d="M298 570 q-93 -2 -155 -65 q-62 -63 -64 -158 q2 -95 64 -158 q62 -63 155 -65 q64 1 117 34.5 q53 33.5 81 92.5 l11 22 l122 0 l73 85 l52 -60 l53 60 l67 -78 q20 9 32 26.5 q12 17.5 12 40.5 q-1 31 -21.5 51.5 q-20.5 20.5 -50.5 21.5 l-339 0 l-11 23 q-28 58 -81 92 q-53 34 -117 35 ZM298 44 q-126 3 -210.5 88.5 q-84.5 85.5 -87.5 214.5 q3 129 87.5 214.5 q84.5 85.5 210.5 88.5 q81 -1 148.5 -40.5 q67.5 -39.5 108.5 -109.5 l291 0 q64 -2 106 -45 q42 -43 44 -108 q-1 -58 -37 -100 q-36 -42 -93 -52 l-20 -2 l-13 14 l-26 30 l-53 -61 l-52 61 l-36 -42 l-19 -1 l-92 0 q-41 -70 -108.5 -109.5 q-67.5 -39.5 -148.5 -40.5 ZM249 423 q25 -1 41 -17 q16 -16 16 -40.5 q0 -24.5 -16 -40 q-16 -15.5 -41 -15.5 q-25 0 -40.5 15.5 q-15.5 15.5 -15.5 40 q0 24.5 15.5 40.5 q15.5 16 40.5 17 Z" /><glyph glyph-name="pen" unicode="&#xe80d;" d="M835 609 l-44 -44 l-142 141 l44 43 l142 -140 ZM95 157 l494 490 l41 -41 l-472 -468 q-13 -13 -13 -29.5 q0 -16.5 13 -29 q13 -12.5 29.5 -12.5 q16.5 0 29.5 12 l473 468 l41 -41 l-494 -489 l-96 -6 q-12 40 -52 52 l6 94 ZM937 609 q0 17 -13 29 l-202 200 q-12 12 -29.5 12 q-17.5 0 -29.5 -12 l-639 -633 q-12 -11 -13 -27 l-13 -212 q0 -19 13 -31.5 q13 -12.5 30 -12.5 l217 12 q16 2 27 12 l639 633 q13 13 13 30 ZM936 -72 q18 0 30.5 12 q12.5 12 12.5 30 q0 18 -12.5 30 q-12.5 12 -30.5 12 l-471 0 q-18 0 -30.5 -12 q-12.5 -12 -12.5 -30 q0 -18 12.5 -30 q12.5 -12 30.5 -12 l471 0 Z" /><glyph glyph-name="menu" unicode="&#xe80e;" d="M650 400 q22 0 36 -15 q14 -15 14 -35 q0 -20 -15 -35 q-15 -15 -35 -15 l-600 0 q-20 0 -35 15 q-15 15 -15 35 q0 20 14 35 q14 15 36 15 l600 0 ZM50 500 q-20 0 -35 15 q-15 15 -15 35 q0 20 14 35 q14 15 36 15 l600 0 q22 0 36 -15 q14 -15 14 -35 q0 -20 -15 -35 q-15 -15 -35 -15 l-600 0 ZM650 200 q22 0 36 -15 q14 -15 14 -35 q0 -20 -15 -35 q-15 -15 -35 -15 l-600 0 q-20 0 -35 15 q-15 15 -15 35 q0 20 14 35 q14 15 36 15 l600 0 Z" /><glyph glyph-name="cancel" unicode="&#xe80f;" d="M452 194 q18 -18 18 -43 q0 -25 -18 -42 q-18 -17 -43 -17 q-25 0 -43 16 l-132 152 l-132 -152 q-18 -16 -43 -16 q-25 0 -43 16 q-16 18 -16 43 q0 25 16 43 l138 156 l-138 158 q-16 18 -16 43 q0 25 16 43 q18 16 43 16 q25 0 43 -16 l132 -152 l132 152 q18 16 43 16 q25 0 43 -17 q18 -17 18 -42 q0 -25 -18 -43 l-138 -158 l138 -156 Z" /><glyph glyph-name="youtube-play" unicode="&#xe810;" d="M714 350 q0 21 -16 30 l-286 179 q-17 11 -36 1 q-19 -10 -19 -31 l0 -358 q0 -21 19 -31 q9 -4 17 -4 q11 0 19 5 l286 179 q16 9 16 30 ZM1000 350 q0 -54 -1 -84 q-1 -30 -4 -76 q-3 -46 -13 -82 q-9 -41 -38 -69 q-29 -28 -70 -32 q-123 -14 -374 -14 q-251 0 -374 14 q-40 4 -70 32 q-30 28 -39 69 q-7 36 -12 82 q-5 46 -4 76 q1 30 -1 84 q-2 54 1 84 q3 30 4 76 q1 46 13 82 q9 41 38 69 q29 28 70 32 q123 14 374 14 q251 0 374 -14 q40 -4 70 -32 q30 -28 39 -69 q8 -36 12 -82 q4 -46 4 -76 q0 -30 1 -84 Z" /><glyph glyph-name="down-open" unicode="&#xe811;" d="M939 399 l-414 -413 q-10 -11 -25 -11 q-15 0 -25 11 l-414 413 q-11 11 -11 26 q0 15 11 25 l92 92 q11 11 26 11 q15 0 25 -11 l296 -296 l296 296 q11 11 25 11 q14 0 26 -11 l92 -92 q11 -11 11 -25 q0 -14 -11 -26 Z" /><glyph glyph-name="instagram" unicode="&#xe812;" d="M760 54 l0 362 l-75 0 q11 -35 11 -73 q0 -71 -36 -130 q-36 -59 -97 -94 q-61 -35 -134 -35 q-110 0 -188 76 q-78 76 -78 183 q0 38 11 73 l-79 0 l0 -362 q0 -14 10 -24 q10 -10 25 -10 l596 0 q14 0 24 10 q10 10 10 24 ZM602 352 q0 69 -51 118 q-51 49 -122 49 q-71 0 -121 -49 q-50 -49 -51 -118 q-1 -69 51 -118 q52 -49 121 -49 q72 0 122 49 q50 49 51 118 ZM760 553 l0 92 q0 15 -11 27 q-11 12 -27 11 l-98 0 q-16 0 -27 -11 q-11 -11 -11 -27 l0 -92 q0 -17 11 -28 q11 -11 27 -11 l98 0 q16 0 27 11 q11 11 11 28 ZM857 669 l0 -638 q0 -45 -32 -77 q-32 -32 -78 -33 l-637 0 q-45 0 -78 33 q-33 33 -32 77 l0 638 q0 45 32 77 q32 32 78 33 l637 0 q45 0 78 -33 q33 -33 32 -77 Z" /><glyph glyph-name="left-open" unicode="&#xe813;" d="M653 682 l-296 -296 l296 -297 q11 -10 11 -25 q0 -15 -11 -25 l-92 -93 q-11 -10 -25 -10 q-14 0 -25 10 l-414 415 q-11 10 -11 25 q0 15 11 25 l414 414 q10 10 25 10 q15 0 25 -10 l92 -93 q11 -10 11 -25 q0 -15 -11 -25 Z" /><glyph glyph-name="right-open" unicode="&#xe814;" d="M618 361 l-414 -415 q-11 -10 -25 -10 q-14 0 -26 10 l-92 93 q-11 11 -11 25 q0 14 11 25 l296 297 l-296 296 q-11 11 -11 25 q0 14 11 25 l92 93 q11 10 26 10 q15 0 25 -10 l414 -414 q10 -11 10 -25 q0 -14 -10 -25 Z" /><glyph glyph-name="up-open" unicode="&#xe815;" d="M939 107 l-92 -92 q-11 -10 -26 -10 q-15 0 -25 10 l-296 297 l-296 -297 q-11 -10 -25 -10 q-14 0 -26 10 l-92 92 q-11 11 -11 26 q0 15 11 25 l414 414 q11 10 25 10 q14 0 25 -10 l414 -414 q11 -11 11 -25 q0 -14 -11 -26 Z" /><glyph glyph-name="user" unicode="&#xe816;" d="M736 128 q204 -72 204 -122 l0 -106 l-940 0 l0 106 q0 50 204 122 q94 34 128 69 q34 35 34 95 q0 22 -22 49 q-22 27 -32 73 q-2 12 -9 18 q-7 6 -14 8 q-7 2 -14 17 q-7 15 -9 43 q0 16 5 26 q5 10 9 12 l4 4 q-8 50 -12 88 q-4 54 41 112 q45 58 157 58 q112 0 158 -58 q46 -58 40 -112 l-12 -88 q18 -8 18 -42 q-2 -28 -9 -43 q-7 -15 -14 -17 q-7 -2 -14 -8 q-7 -6 -9 -18 q-8 -48 -31 -74 q-23 -26 -23 -48 q0 -60 35 -95 q35 -35 127 -69 Z" /><glyph glyph-name="play" unicode="&#xe817;" d="M772 333 l-741 -412 q-13 -7 -22 -2 q-9 5 -9 20 l0 822 q0 14 9 20 q9 6 22 -2 l741 -412 q13 -7 13 -17 q0 -10 -13 -17 Z" /><glyph glyph-name="pause" unicode="&#xe818;" d="M857 743 l0 -786 q0 -14 -10 -25 q-10 -11 -26 -11 l-285 0 q-15 0 -25 11 q-10 11 -11 25 l0 786 q0 14 11 25 q11 11 25 11 l285 0 q15 0 26 -11 q11 -11 10 -25 ZM357 743 l0 -786 q0 -14 -10 -25 q-10 -11 -26 -11 l-285 0 q-15 0 -25 11 q-10 11 -11 25 l0 786 q0 14 11 25 q11 11 25 11 l285 0 q15 0 26 -11 q11 -11 10 -25 Z" /><glyph glyph-name="stop" unicode="&#xe819;" d="M857 743 l0 -786 q0 -14 -10 -25 q-10 -11 -26 -11 l-785 0 q-15 0 -25 11 q-10 11 -11 25 l0 786 q0 14 11 25 q11 11 25 11 l785 0 q15 0 26 -11 q11 -11 10 -25 Z" /><glyph glyph-name="user-add" unicode="&#xe81a;" d="M620 128 q180 -64 180 -122 l0 -106 l-800 0 l0 202 q36 14 82 26 q94 34 129 69 q35 35 35 95 q0 22 -23 48 q-23 26 -31 74 q-2 12 -23 25 q-21 13 -25 61 q0 16 5 26 q5 10 9 12 l4 4 q-8 50 -12 88 q-6 54 40 112 q46 58 160 58 q114 0 160 -58 q46 -58 42 -112 l-14 -88 q18 -8 18 -42 q-2 -28 -9 -43 q-7 -15 -14 -17 q-7 -2 -14 -8 q-7 -6 -9 -18 q-10 -46 -33 -73 q-23 -27 -23 -49 q0 -60 36 -95 q36 -35 130 -69 ZM850 400 l150 0 l0 -100 l-150 0 l0 -150 l-100 0 l0 150 l-150 0 l0 100 l150 0 l0 150 l100 0 l0 -150 Z" /><glyph glyph-name="star" unicode="&#xe81b;" d="M440 790 l120 -336 l320 0 l-262 -196 l94 -348 l-272 208 l-272 -208 l94 348 l-262 196 l320 0 l120 336 Z" /><glyph glyph-name="events" unicode="&#xe81c;" d="M282 349 q-3 -5 -4 -11 l0 -190 q1 -6 5 -10.5 q4 -4.5 10 -4.5 l200 0 q6 0 10.5 4.5 q4.5 4.5 4.5 10.5 l0 32 q0 6 -4.5 10.5 q-4.5 4.5 -10.5 4.5 l-152 0 l0 143 q0 6 -5 11 q-5 5 -11 5 l-32 0 q-6 0 -11 -5 ZM931 69 l-325 0 q15 45 15 95 q-3 132 -90.5 219.5 q-87.5 87.5 -218.5 90.5 q-49 0 -93 -14 l0 147 l712 0 l0 -538 ZM931 670 l-712 0 l0 82 l712 0 l0 -82 ZM218 386 q1 0 1 0 q44 19 93 19 q49 0 92.5 -18.5 q43.5 -18.5 77 -52 q33.5 -33.5 51.5 -76.5 q19 -45 19 -94 q0 -49 -19 -94 q0 0 0 -1 q-15 -34 -40 -63 q-5 -6 -11 -12 q-34 -34 -77.5 -52.5 q-43.5 -18.5 -92.5 -18.5 q-49 0 -94 19 q-42 18 -75.5 52 q-33.5 34 -52.5 76 q-18 45 -18 94 q0 49 18 94 q19 43 52 76 q6 7 14 14 q29 24 62 38 ZM993 61 l0 350 l0 350 q-1 23 -16 38.5 q-15 15.5 -38 15.5 l-729 0 q-23 0 -38 -15.5 q-15 -15.5 -16 -38.5 l0 -329 q-70 -41 -111 -111 q-41 -70 -42 -157 q3 -132 90 -219.5 q87 -87.5 219 -90.5 q86 1 155.5 42 q69.5 41 110.5 110 l361 0 q23 1 38 16.5 q15 15.5 16 38.5 Z" /><glyph glyph-name="news" unicode="&#xe81d;" d="M852 224 q-14 -4 -24.5 4.5 q-10.5 8.5 -11.5 20 q-1 11.5 6 20.5 q51 64 68 142 q17 78 -4.5 156.5 q-21.5 78.5 -75.5 138 q-54 59.5 -131 89.5 q-11 5 -15.5 15 q-4.5 10 0 21.5 q4.5 11.5 14.5 16 q10 4.5 22 0.5 q88 -34 151 -102 q32 -35 55 -76.5 q23 -41.5 35.5 -87 q12.5 -45.5 13.5 -93 q1 -47.5 -9 -92.5 q-10 -45 -30 -86.5 q-20 -41.5 -49 -77.5 q-6 -7 -15 -9 ZM756 315 q-13 -3 -24 5 q-11 8 -12 19.5 q-1 11.5 7 20.5 q29 37 39 81.5 q10 44.5 -2 89.5 q-12 45 -43.5 78.5 q-31.5 33.5 -75.5 50.5 q-11 4 -15.5 14.5 q-4.5 10.5 -0.5 22 q4 11.5 14.5 16 q10.5 4.5 22.5 0.5 q57 -22 97 -66 q40 -44 56 -102 q16 -58 3 -116 q-13 -58 -51 -105 q-6 -7 -15 -9 ZM142 230 q-9 3 -15 10 q-58 75 -76 163.5 q-18 88.5 7 179 q25 90.5 85 158 q60 67.5 147 104.5 q12 4 22.5 0 q10.5 -4 15 -15.5 q4.5 -11.5 0.5 -22 q-4 -10.5 -15 -15.5 q-75 -31 -126.5 -89 q-51.5 -58 -72.5 -135 q-21 -77 -6 -153 q15 -76 64 -140 q7 -9 5.5 -20.5 q-1.5 -11.5 -10.5 -19.5 q-12 -8 -25 -5 ZM243 314 q-9 3 -15 10 q-38 47 -51 104.5 q-13 57.5 2.5 116 q15.5 58.5 56 102.5 q40.5 44 98.5 66 q11 4 21.5 -0.5 q10.5 -4.5 15 -16 q4.5 -11.5 -0.5 -21.5 q-5 -10 -16 -15 q-45 -16 -76 -50 q-31 -34 -43 -79.5 q-12 -45.5 -2 -89.5 q10 -44 39 -81 q8 -9 7 -20.5 q-1 -11.5 -11 -19.5 q-12 -9 -25 -6 ZM455 171 l104 47 l41 -131 l-145 84 ZM370 -27 l50 167 l164 -95 l-214 -72 ZM472 311 l61 -56 l-91 -42 l30 98 ZM545 411 q18 11 29 29.5 q11 18.5 11 41.5 q-1 35 -25 59 q-24 24 -60 24 q-36 0 -60 -24 q-24 -24 -25 -59 q0 -23 11 -41.5 q11 -18.5 29 -29.5 l-163 -541 l45 -14 l17 65 l269 90 l48 -154 l43 13 l-169 541 Z" /></font>
</defs>
</svg>
